<svg width="42" height="24" viewBox="0 0 42 24" fill="none" xmlns="http://www.w3.org/2000/svg">
<path d="M40.4674 16.9109L32.8761 2.74809C31.9664 1.05071 30.2661 0.0243782 28.3277 0.00264594C26.3945 -0.0255115 24.6658 0.968503 23.7172 2.6451L20.6566 8.05547L17.8099 2.74525C16.9001 1.04825 15.199 0.0221102 13.2619 0H13.1983C11.2866 0 9.59023 0.983998 8.65201 2.64113L0.627315 16.8143C-0.22419 18.3182 -0.20799 20.1048 0.670768 21.5931C1.54953 23.0815 3.11246 23.9703 4.85187 23.9703H10.3933C11.7009 23.9693 12.9847 23.6237 14.1132 22.9688C15.2417 22.314 16.1744 21.3735 16.8158 20.2437L20.5918 13.5811L24.082 20.0931C24.7083 21.265 25.645 22.2453 26.7914 22.9285C27.9378 23.6117 29.2505 23.9719 30.588 23.9703H36.1893C37.9054 23.9703 39.4579 23.0993 40.342 21.6408C41.2261 20.1822 41.2739 18.4134 40.4674 16.9109ZM14.4871 18.9452C14.0782 19.6652 13.4836 20.2645 12.7643 20.6817C12.0449 21.099 11.2267 21.3191 10.3933 21.3197H4.85187C4.47256 21.3199 4.09982 21.2215 3.77072 21.0345C3.44162 20.8475 3.16763 20.5783 2.976 20.2537C2.78437 19.9291 2.68179 19.5605 2.67844 19.1844C2.6751 18.8082 2.77112 18.4378 2.95695 18.1099L10.9816 3.93675C11.439 3.12774 12.2671 2.64774 13.2002 2.64774H13.2312C14.1771 2.65851 15.0067 3.1593 15.4507 3.98758L19.1028 10.8003L14.4871 18.9452ZM38.052 20.2754C37.6495 20.9393 36.9706 21.3203 36.1893 21.3203H30.5884C29.7359 21.3213 28.8992 21.0917 28.1685 20.6562C27.4378 20.2208 26.8407 19.596 26.4416 18.849L22.1469 10.8364L26.0467 3.94109C26.5094 3.12302 27.355 2.64566 28.2967 2.65152C29.2425 2.66229 30.0721 3.16308 30.5161 3.99136L38.1075 18.154C38.4749 18.8382 38.4543 19.6113 38.052 20.2754V20.2754Z" fill="url(#paint0_linear_95_10306)"/>
<defs>
<linearGradient id="paint0_linear_95_10306" x1="-6.92537e-05" y1="11.9843" x2="41.0399" y2="11.9843" gradientUnits="userSpaceOnUse">
<stop stop-color="#FFA674"/>
<stop offset="0.5" stop-color="#FF70A4"/>
<stop offset="1" stop-color="#9E2CF2"/>
</linearGradient>
</defs>
</svg>
